<svg viewBox="0 0 130 40" xmlns="http://www.w3.org/2000/svg"><g fill="#006463"><path d="m54.85 3.25h1.5l-2.35 6.9h-1.37l-2.32-6.9h1.54l1.48 5.23z"/><path d="m61 9.15c0 .6.13.74.3.79v.21h-1.49a2.19 2.19 0 0 1 -.13-.61 2.07 2.07 0 0 1 -1.65.74 1.44 1.44 0 0 1 -1.56-1.49 1.56 1.56 0 0 1 1.53-1.63l1.17-.16c.21 0 .47-.12.47-.41 0-.57-.54-.59-.88-.59a.73.73 0 0 0 -.83.71h-1.29c.15-1.57 1.24-1.79 2.28-1.79.72 0 2 .22 2 1.48zm-1.36-1.49a2 2 0 0 1 -.91.28c-.5.08-.91.21-.91.77a.58.58 0 0 0 .62.61 1.11 1.11 0 0 0 1.2-1z"/><path d="m63.78 10.15h-1.34v-6.9h1.34z"/><path d="m69.92 10.15h-1.29v-.73a1.67 1.67 0 0 1 -1.55.86 1.65 1.65 0 0 1 -1.76-1.88v-3.4h1.34v3.21c0 .78.46.94.88.94a1 1 0 0 0 1-1.16v-2.99h1.35z"/><path d="m75.8 8.65a2.2 2.2 0 0 1 -2.24 1.63c-1.44 0-2.55-.69-2.55-2.79a2.38 2.38 0 0 1 2.45-2.59c1 0 2.4.48 2.4 2.81v.29h-3.5c0 .38.11 1.25 1.2 1.25a.87.87 0 0 0 .86-.56zm-1.32-1.57a1 1 0 0 0 -1-1.08c-.63 0-1 .41-1 1.08z"/><path d="m88.12 5.51a1.41 1.41 0 0 0 -1.53-1.19c-.69 0-1.71.46-1.71 2.41 0 1.24.49 2.35 1.71 2.35a1.48 1.48 0 0 0 1.53-1.3h1.44a2.88 2.88 0 0 1 -3 2.55c-1.83 0-3.15-1.24-3.15-3.62s1.39-3.64 3.17-3.64a2.74 2.74 0 0 1 3 2.44z"/><path d="m90.78 5h1.28v.88a1.5 1.5 0 0 1 1.4-1h.26v1.41a2.36 2.36 0 0 0 -.38 0 1.08 1.08 0 0 0 -1.24 1.22v2.66h-1.32z"/><path d="m99.15 8.65a2.2 2.2 0 0 1 -2.24 1.63c-1.44 0-2.55-.69-2.55-2.79a2.38 2.38 0 0 1 2.45-2.59c1 0 2.4.48 2.4 2.81v.29h-3.51c0 .38.12 1.25 1.21 1.25a.87.87 0 0 0 .86-.56zm-1.32-1.57a1 1 0 0 0 -1-1.08c-.64 0-1 .41-1.05 1.08z"/><path d="m104.48 9.15c0 .6.14.74.3.79v.21h-1.45a2.19 2.19 0 0 1 -.13-.61 2 2 0 0 1 -1.65.74 1.43 1.43 0 0 1 -1.55-1.49 1.55 1.55 0 0 1 1.48-1.63l1.22-.16c.21 0 .46-.12.46-.41 0-.57-.53-.59-.88-.59a.71.71 0 0 0 -.82.71h-1.3c.15-1.57 1.24-1.79 2.29-1.79.71 0 2 .22 2 1.48zm-1.32-1.49a2 2 0 0 1 -.91.28c-.5.08-.91.21-.91.77a.59.59 0 0 0 .63.61 1.1 1.1 0 0 0 1.19-1z"/><path d="m107.43 5h.83v1h-.83v2.77c0 .3 0 .42.56.42h.27v1h-.63-.17c-1.16 0-1.38-.44-1.38-1.1v-3.09h-.69v-1h.69v-1.35h1.35z"/><path d="m111.67 10.28a2.48 2.48 0 0 1 -2.61-2.69 2.62 2.62 0 1 1 5.23 0 2.48 2.48 0 0 1 -2.62 2.69zm0-4.24c-1 0-1.23.9-1.23 1.55s.2 1.56 1.23 1.56 1.23-.9 1.23-1.56-.19-1.59-1.23-1.59z"/><path d="m115.46 5h1.28v.88a1.5 1.5 0 0 1 1.41-1h.25v1.41a2.3 2.3 0 0 0 -.38 0 1.08 1.08 0 0 0 -1.24 1.22v2.66h-1.34z"/><path d="m63.39 34.77v-11.58a1.82 1.82 0 0 1 1.82-1.83 1.83 1.83 0 0 1 1.79 1.83v11.58h6.09v-11.58a1.83 1.83 0 0 1 1.91-1.83 1.83 1.83 0 0 1 1.83 1.83v11.58h6.09v-11.58a7.9 7.9 0 0 0 -4.45-7.11 7.91 7.91 0 0 0 -8.34.87 7.93 7.93 0 0 0 -8.35-.87 7.89 7.89 0 0 0 -4.44 7.11v11.58z"/><path d="m50.31 15.27h6.09v19.49h-6.09z"/><path d="m89.87 34.77h-6.1v-11.58a7.93 7.93 0 0 1 7.92-7.92 7.92 7.92 0 0 1 7.92 7.92v11.58h-6.09v-4.27h-3.65zm3.65-9.14v-2.44a1.83 1.83 0 0 0 -1.83-1.83 1.82 1.82 0 0 0 -1.82 1.83v2.44z"/><path d="m120 25a9.74 9.74 0 0 1 -9.75 9.74 9.74 9.74 0 0 1 -9.74-9.74 9.75 9.75 0 1 1 19.49 0zm-13.4 0a3.66 3.66 0 1 0 7.31 0 3.66 3.66 0 0 0 -3.66-3.66 3.65 3.65 0 0 0 -3.65 3.66z"/><path d="m29.42 23.85h-2.18v1.15a5.35 5.35 0 0 1 -4.16 5.22v2.22a7.54 7.54 0 0 0 6.34-7.44zm14.34-6.6a11.89 11.89 0 0 0 -15.43-2.2 11.89 11.89 0 1 0 -7.63 21.82v-2.19a9.72 9.72 0 0 1 -8.52-9.68v-1.15h2.18v1.15a7.54 7.54 0 0 0 6.34 7.44v-2.18a5.36 5.36 0 0 1 -4.16-5.26v-1.15h2.18v1.15a3.17 3.17 0 1 0 6.34 0 9.7 9.7 0 0 1 2.45-6.44 11.84 11.84 0 0 0 6.07 2.44v2.83h-2v1.17a9.71 9.71 0 0 1 -8.52 9.64v2.19a11.76 11.76 0 0 0 5.27-1.83 11.89 11.89 0 0 0 15.43-17.75zm-14.6-.14a9.84 9.84 0 0 1 4.42-1.71v3.42a9.61 9.61 0 0 1 -4.42-1.71zm4.42 17.57a9.85 9.85 0 0 1 -3.42-1.09 12.4 12.4 0 0 0 1.61-1.93 9.45 9.45 0 0 1 1.81-.4zm0-5.62-.52.07a11.7 11.7 0 0 0 .52-1.93zm2.42-13.66a9.84 9.84 0 0 1 4.42 1.71 9.61 9.61 0 0 1 -4.42 1.71zm0 5.6a11.88 11.88 0 0 0 6-2.4 9.72 9.72 0 0 1 2.37 5.25h-8.37zm0 13.66v-3.4a9.61 9.61 0 0 1 4.38 1.74 9.72 9.72 0 0 1 -4.38 1.68zm6-3.18a12.05 12.05 0 0 0 -6-2.42v-2.83h8.45a9.72 9.72 0 0 1 -2.45 5.25z"/></g></svg>